<svg xmlns="http://www.w3.org/2000/svg" xmlns:xlink="http://www.w3.org/1999/xlink" width="195" zoomAndPan="magnify" viewBox="0 0 146.25 303.75" height="405" preserveAspectRatio="xMidYMid meet" version="1.0"><defs><clipPath id="ca9853e478"><path d="M 4.507812 12.335938 L 140.996094 12.335938 L 140.996094 290.863281 L 4.507812 290.863281 Z M 4.507812 12.335938 " clip-rule="nonzero"/></clipPath><clipPath id="054839af47"><path d="M 121.671875 12.605469 L 23.832031 12.605469 C 13.230469 12.605469 4.625 21.210938 4.625 31.8125 L 4.625 271.617188 C 4.625 282.222656 13.230469 290.828125 23.832031 290.828125 L 121.671875 290.828125 C 132.273438 290.828125 140.878906 282.222656 140.878906 271.617188 L 140.878906 31.8125 C 140.878906 21.210938 132.273438 12.605469 121.671875 12.605469 Z M 89.105469 21.417969 C 90.066406 21.417969 90.824219 22.175781 90.824219 23.136719 C 90.824219 24.101562 90.066406 24.859375 89.105469 24.859375 C 88.140625 24.859375 87.382812 24.101562 87.382812 23.136719 C 87.382812 22.175781 88.207031 21.417969 89.105469 21.417969 Z M 63.699219 21.96875 L 80.222656 21.96875 C 80.84375 21.96875 81.394531 22.449219 81.394531 23.136719 C 81.394531 23.828125 80.84375 24.308594 80.222656 24.308594 L 63.699219 24.308594 C 63.078125 24.308594 62.527344 23.828125 62.527344 23.136719 C 62.527344 22.449219 63.078125 21.96875 63.699219 21.96875 Z M 133.855469 272.71875 C 133.855469 278.984375 128.761719 284.082031 122.496094 284.082031 L 23.144531 284.082031 C 16.878906 284.082031 11.785156 278.984375 11.785156 272.71875 L 11.785156 31.054688 C 11.785156 24.789062 16.878906 19.695312 23.144531 19.695312 L 37.949219 19.695312 L 37.949219 22.792969 C 37.949219 26.304688 40.839844 29.195312 44.351562 29.195312 L 101.289062 29.195312 C 104.800781 29.195312 107.695312 26.304688 107.695312 22.792969 L 107.695312 19.695312 L 122.425781 19.695312 C 128.691406 19.695312 133.789062 24.789062 133.789062 31.054688 L 133.789062 272.71875 Z M 133.855469 272.71875 " clip-rule="nonzero"/></clipPath><clipPath id="18e65a578b"><path d="M 11.71875 19.550781 L 134 19.550781 L 134 284.207031 L 11.71875 284.207031 Z M 11.71875 19.550781 " clip-rule="nonzero"/></clipPath><clipPath id="19bcf426af"><path d="M 122.425781 19.695312 L 107.695312 19.695312 L 107.695312 22.792969 C 107.695312 26.304688 104.800781 29.195312 101.289062 29.195312 L 44.421875 29.195312 C 40.910156 29.195312 38.015625 26.304688 38.015625 22.792969 L 38.015625 19.695312 L 23.144531 19.695312 C 16.878906 19.695312 11.785156 24.789062 11.785156 31.054688 L 11.785156 272.71875 C 11.785156 278.984375 16.878906 284.082031 23.144531 284.082031 L 122.425781 284.082031 C 128.691406 284.082031 133.789062 278.984375 133.789062 272.71875 L 133.789062 31.054688 C 133.855469 24.789062 128.761719 19.695312 122.425781 19.695312 Z M 122.425781 19.695312 " clip-rule="nonzero"/></clipPath><clipPath id="93b112a137"><path d="M 62.210938 21.769531 L 81.628906 21.769531 L 81.628906 24.542969 L 62.210938 24.542969 Z M 62.210938 21.769531 " clip-rule="nonzero"/></clipPath><clipPath id="12d13ce9c9"><path d="M 80.222656 21.96875 L 63.699219 21.96875 C 63.078125 21.96875 62.527344 22.449219 62.527344 23.136719 C 62.527344 23.828125 63.078125 24.308594 63.699219 24.308594 L 80.222656 24.308594 C 80.84375 24.308594 81.394531 23.828125 81.394531 23.136719 C 81.394531 22.449219 80.84375 21.96875 80.222656 21.96875 Z M 80.222656 21.96875 " clip-rule="nonzero"/></clipPath><clipPath id="acfea1b9c6"><path d="M 87.175781 21.214844 L 91 21.214844 L 91 25 L 87.175781 25 Z M 87.175781 21.214844 " clip-rule="nonzero"/></clipPath><clipPath id="7e7f7951c4"><path d="M 89.105469 21.417969 C 88.152344 21.417969 87.382812 22.1875 87.382812 23.136719 C 87.382812 24.089844 88.152344 24.859375 89.105469 24.859375 C 90.054688 24.859375 90.824219 24.089844 90.824219 23.136719 C 90.824219 22.1875 90.054688 21.417969 89.105469 21.417969 Z M 89.105469 21.417969 " clip-rule="nonzero"/></clipPath><clipPath id="93a2e64feb"><path d="M 1.734375 48.402344 L 3.398438 48.402344 L 3.398438 60 L 1.734375 60 Z M 1.734375 48.402344 " clip-rule="nonzero"/></clipPath><clipPath id="3e374f6d7e"><path d="M 1.734375 49.851562 L 1.734375 58.457031 C 1.734375 59.285156 2.421875 59.972656 3.246094 59.972656 L 3.246094 48.40625 C 2.421875 48.40625 1.734375 49.027344 1.734375 49.851562 Z M 1.734375 49.851562 " clip-rule="nonzero"/></clipPath><clipPath id="da676653b8"><path d="M 1.734375 68.375 L 3.398438 68.375 L 3.398438 89.460938 L 1.734375 89.460938 Z M 1.734375 68.375 " clip-rule="nonzero"/></clipPath><clipPath id="265a317e08"><path d="M 1.734375 70.023438 L 1.734375 87.925781 C 1.734375 88.753906 2.421875 89.441406 3.246094 89.441406 L 3.246094 68.578125 C 2.421875 68.578125 1.734375 69.199219 1.734375 70.023438 Z M 1.734375 70.023438 " clip-rule="nonzero"/></clipPath><clipPath id="50aad5da2f"><path d="M 1.734375 93.898438 L 3.398438 93.898438 L 3.398438 114.980469 L 1.734375 114.980469 Z M 1.734375 93.898438 " clip-rule="nonzero"/></clipPath><clipPath id="6bdf8f1c76"><path d="M 1.734375 95.5 L 1.734375 113.402344 C 1.734375 114.226562 2.421875 114.914062 3.246094 114.914062 L 3.246094 93.984375 C 2.421875 93.984375 1.734375 94.671875 1.734375 95.5 Z M 1.734375 95.5 " clip-rule="nonzero"/></clipPath><clipPath id="ff0156a789"><path d="M 142.105469 75.035156 L 143.769531 75.035156 L 143.769531 109 L 142.105469 109 Z M 142.105469 75.035156 " clip-rule="nonzero"/></clipPath><clipPath id="ed4cc4e166"><path d="M 142.257812 75.464844 L 142.257812 108.996094 C 143.082031 108.996094 143.769531 108.304688 143.769531 107.480469 L 143.769531 76.980469 C 143.769531 76.152344 143.082031 75.464844 142.257812 75.464844 Z M 142.257812 75.464844 " clip-rule="nonzero"/></clipPath><clipPath id="2348580a7e"><path d="M 3 11.226562 L 142.660156 11.226562 L 142.660156 292.53125 L 3 292.53125 Z M 3 11.226562 " clip-rule="nonzero"/></clipPath><clipPath id="a1bc2ede91"><path d="M 142.257812 75.464844 L 142.257812 31.8125 C 142.257812 30.367188 142.117188 28.992188 141.84375 27.683594 C 141.707031 26.992188 141.566406 26.375 141.359375 25.6875 C 141.085938 24.722656 140.671875 23.757812 140.257812 22.863281 C 139.984375 22.242188 139.640625 21.691406 139.296875 21.140625 C 138.953125 20.589844 138.605469 20.039062 138.195312 19.488281 C 137.574219 18.664062 136.953125 17.972656 136.265625 17.21875 C 135.785156 16.734375 135.300781 16.320312 134.820312 15.910156 C 131.238281 12.949219 126.695312 11.226562 121.738281 11.226562 L 23.832031 11.226562 C 18.875 11.226562 14.261719 13.015625 10.753906 15.910156 C 10.269531 16.320312 9.789062 16.804688 9.304688 17.21875 C 8.617188 17.90625 7.929688 18.664062 7.378906 19.488281 C 6.964844 20.039062 6.621094 20.589844 6.277344 21.140625 C 5.933594 21.691406 5.589844 22.3125 5.3125 22.863281 C 4.832031 23.828125 4.488281 24.722656 4.144531 25.6875 C 3.9375 26.375 3.796875 26.992188 3.660156 27.683594 C 3.386719 28.992188 3.246094 30.4375 3.246094 31.8125 L 3.246094 271.617188 C 3.246094 282.980469 12.472656 292.207031 23.832031 292.207031 L 121.671875 292.207031 C 133.03125 292.207031 142.257812 282.980469 142.257812 271.617188 Z M 140.878906 75.464844 L 140.878906 271.6875 C 140.878906 282.289062 132.273438 290.898438 121.671875 290.898438 L 23.832031 290.898438 C 13.230469 290.898438 4.625 282.289062 4.625 271.6875 L 4.625 31.882812 C 4.625 21.210938 13.230469 12.605469 23.832031 12.605469 L 121.671875 12.605469 C 132.273438 12.605469 140.878906 21.210938 140.878906 31.8125 Z M 140.878906 75.464844 " clip-rule="nonzero"/></clipPath></defs><g clip-path="url(#ca9853e478)"><g clip-path="url(#054839af47)"><path fill="#000000" d="M 1.734375 11.226562 L 143.769531 11.226562 L 143.769531 292.53125 L 1.734375 292.53125 Z M 1.734375 11.226562 " fill-opacity="1" fill-rule="nonzero"/></g></g><g clip-path="url(#18e65a578b)"><g clip-path="url(#19bcf426af)"><path fill="#ffffff" d="M 1.734375 11.226562 L 143.769531 11.226562 L 143.769531 292.53125 L 1.734375 292.53125 Z M 1.734375 11.226562 " fill-opacity="1" fill-rule="nonzero"/></g></g><g clip-path="url(#93b112a137)"><g clip-path="url(#12d13ce9c9)"><path fill="#555555" d="M 1.734375 11.226562 L 143.769531 11.226562 L 143.769531 292.53125 L 1.734375 292.53125 Z M 1.734375 11.226562 " fill-opacity="1" fill-rule="nonzero"/></g></g><g clip-path="url(#acfea1b9c6)"><g clip-path="url(#7e7f7951c4)"><path fill="#555555" d="M 1.734375 11.226562 L 143.769531 11.226562 L 143.769531 292.53125 L 1.734375 292.53125 Z M 1.734375 11.226562 " fill-opacity="1" fill-rule="nonzero"/></g></g><g clip-path="url(#93a2e64feb)"><g clip-path="url(#3e374f6d7e)"><path fill="#2e2e2e" d="M 1.734375 11.226562 L 143.769531 11.226562 L 143.769531 292.53125 L 1.734375 292.53125 Z M 1.734375 11.226562 " fill-opacity="1" fill-rule="nonzero"/></g></g><g clip-path="url(#da676653b8)"><g clip-path="url(#265a317e08)"><path fill="#2e2e2e" d="M 1.734375 11.226562 L 143.769531 11.226562 L 143.769531 292.53125 L 1.734375 292.53125 Z M 1.734375 11.226562 " fill-opacity="1" fill-rule="nonzero"/></g></g><g clip-path="url(#50aad5da2f)"><g clip-path="url(#6bdf8f1c76)"><path fill="#2e2e2e" d="M 1.734375 11.226562 L 143.769531 11.226562 L 143.769531 292.53125 L 1.734375 292.53125 Z M 1.734375 11.226562 " fill-opacity="1" fill-rule="nonzero"/></g></g><g clip-path="url(#ff0156a789)"><g clip-path="url(#ed4cc4e166)"><path fill="#2e2e2e" d="M 1.734375 11.226562 L 143.769531 11.226562 L 143.769531 292.53125 L 1.734375 292.53125 Z M 1.734375 11.226562 " fill-opacity="1" fill-rule="nonzero"/></g></g><g clip-path="url(#2348580a7e)"><g clip-path="url(#a1bc2ede91)"><path fill="#555555" d="M 1.734375 11.226562 L 143.769531 11.226562 L 143.769531 292.53125 L 1.734375 292.53125 Z M 1.734375 11.226562 " fill-opacity="1" fill-rule="nonzero"/></g></g></svg>